<svg className="logo" width="697" height="737" viewBox="0 0 697 737" fill="none" xmlns="http://www.w3.org/2000/svg">
        <path d="M19.5146 635.873C19.9521 631.537 21.1251 627.917 23.0337 625.012C24.9424 622.107 27.3084 619.799 30.1316 618.088C32.9548 616.337 36.0963 615.104 39.5558 614.388C43.0153 613.669 46.5143 613.313 50.0532 613.313C52.9561 613.313 55.7991 613.432 58.5828 613.669C61.3661 613.91 63.931 614.187 66.2771 614.507C68.6232 614.823 70.6509 615.143 72.3607 615.46C74.0705 615.78 75.3234 616.017 76.1184 616.179C76.5956 616.297 76.8341 616.517 76.8341 616.833C76.8341 616.912 76.7946 617.153 76.7148 617.548L75.8202 621.848C75.7408 622.125 75.6216 622.305 75.4624 622.384C75.3431 622.423 75.2238 622.445 75.1046 622.445C73.3549 622.445 71.8437 622.743 70.5715 623.34C69.299 623.937 68.2452 624.771 67.4102 625.846C66.5753 626.921 65.939 628.194 65.5014 629.668C65.0642 631.138 64.766 632.731 64.6068 634.442L61.028 677.831C60.7101 681.333 59.8155 684.637 58.3442 687.74C56.873 690.842 54.8251 693.549 52.2006 695.857C49.576 698.165 46.3551 699.995 42.5378 701.347C38.7204 702.699 34.3466 703.375 29.4158 703.375C26.1154 703.375 22.9343 703.217 19.8725 702.9C16.8107 702.58 14.0272 702.203 11.5221 701.764C9.01699 701.326 6.84986 700.909 5.0207 700.513C3.23133 700.074 1.93901 699.755 1.14373 699.557C0.666561 699.438 0.427979 699.219 0.427979 698.899C0.427979 698.859 0.46774 698.64 0.54727 698.245L1.56125 693.707C1.64078 693.431 1.74019 693.269 1.85948 693.229C2.01853 693.15 2.15771 693.111 2.277 693.111C4.02661 693.111 5.63704 692.852 7.10833 692.334C8.61934 691.816 9.93153 690.961 11.0449 689.767C12.1583 688.574 13.0729 687.024 13.7886 685.112C14.5442 683.203 15.0611 680.855 15.3394 678.069L19.5146 635.873ZM147.567 703.375C144.386 703.375 141.185 703.098 137.964 702.541C134.783 701.983 131.721 701.027 128.779 699.675C125.836 698.324 123.093 696.533 120.548 694.304C118.003 692.036 115.776 689.232 113.867 685.888C111.998 682.505 110.527 678.529 109.453 673.952C108.38 669.336 107.843 663.983 107.843 657.896C107.843 651.849 108.38 646.518 109.453 641.902C110.527 637.286 111.998 633.306 113.867 629.966C115.776 626.583 118.003 623.779 120.548 621.55C123.093 619.321 125.836 617.548 128.779 616.236C131.721 614.884 134.783 613.928 137.964 613.371C141.185 612.814 144.386 612.537 147.567 612.537C150.748 612.537 153.949 612.814 157.17 613.371C160.391 613.928 163.473 614.884 166.415 616.236C169.358 617.548 172.101 619.321 174.647 621.55C177.191 623.779 179.398 626.583 181.267 629.966C183.136 633.306 184.607 637.286 185.681 641.902C186.755 646.518 187.291 651.849 187.291 657.896C187.291 664.58 186.655 670.372 185.383 675.265C184.11 680.118 182.361 684.278 180.134 687.74L188.544 699.737C188.981 700.412 189.2 700.988 189.2 701.466C189.2 702.023 189.001 702.501 188.603 702.9C188.246 703.335 187.828 703.695 187.351 703.972L183.593 706.064C183.315 706.222 183.036 706.341 182.758 706.42C182.48 706.539 182.182 706.6 181.863 706.6C181.386 706.6 180.929 706.459 180.492 706.183C180.054 705.902 179.657 705.424 179.299 704.748L173.931 694.901C172.062 696.494 170.074 697.827 167.966 698.899C165.859 699.974 163.672 700.829 161.405 701.466C159.178 702.142 156.892 702.62 154.546 702.9C152.2 703.217 149.874 703.375 147.567 703.375ZM168.503 674.251C169.457 673.654 170.332 673.891 171.127 674.966L174.169 679.323C175.521 677.375 176.634 674.668 177.509 671.206C178.384 667.704 178.822 663.268 178.822 657.896C178.822 652.924 178.444 648.765 177.688 645.421C176.973 642.082 175.999 639.396 174.766 637.365C173.573 635.337 172.201 633.903 170.65 633.069C169.099 632.191 167.509 631.756 165.878 631.756C164.248 631.756 162.657 632.191 161.107 633.069C159.596 633.903 158.224 635.337 156.991 637.365C155.759 639.396 154.764 642.082 154.009 645.421C153.293 648.765 152.935 652.924 152.935 657.896C152.935 662.872 153.293 667.028 154.009 670.372C154.764 673.711 155.759 676.401 156.991 678.428C158.224 680.456 159.596 681.908 161.107 682.786C162.657 683.62 164.248 684.04 165.878 684.04C166.634 684.04 167.33 683.958 167.966 683.799L165.043 678.367C164.765 677.853 164.666 677.375 164.745 676.936C164.825 676.458 165.143 676.059 165.699 675.743L168.503 674.251ZM225.159 623.696C225.159 622.305 225.279 621.09 225.517 620.058C225.756 619.022 226.213 618.167 226.889 617.491C227.565 616.775 228.5 616.236 229.692 615.88C230.885 615.521 232.436 615.341 234.345 615.341H260.947C263.253 615.341 265.003 615.679 266.196 616.355C267.428 617.034 268.284 617.886 268.761 618.922C269.277 619.918 269.556 620.993 269.596 622.147C269.635 623.261 269.655 624.293 269.655 625.249V692.873C272.399 692.474 274.944 692.115 277.29 691.799C278.284 691.68 279.278 691.558 280.272 691.439C281.306 691.281 282.24 691.141 283.075 691.022C283.95 690.903 284.725 690.824 285.402 690.785C286.078 690.702 286.575 690.662 286.893 690.662C287.569 690.662 288.106 690.803 288.503 691.083C288.941 691.32 289.159 691.838 289.159 692.633V698.126C289.159 698.841 288.841 699.517 288.205 700.154C287.609 700.75 286.634 701.049 285.282 701.049H234.226C232.357 701.049 230.826 700.869 229.633 700.513C228.48 700.154 227.565 699.636 226.889 698.96C226.213 698.284 225.756 697.428 225.517 696.393C225.279 695.358 225.159 694.146 225.159 692.751V623.696ZM324.642 623.696C324.642 622.305 324.761 621.09 325 620.058C325.238 619.022 325.695 618.167 326.371 617.491C327.047 616.775 327.982 616.236 329.175 615.88C330.368 615.521 331.919 615.341 333.827 615.341H360.428C362.735 615.341 364.484 615.679 365.677 616.355C366.909 617.034 367.764 617.886 368.242 618.922C368.76 619.918 369.036 620.993 369.079 622.147C369.119 623.261 369.137 624.293 369.137 625.249V691.381C369.137 692.295 369.058 693.308 368.9 694.423C368.738 695.537 368.343 696.591 367.707 697.587C367.071 698.543 366.094 699.359 364.782 700.035C363.471 700.711 361.66 701.049 359.354 701.049H333.827C331.919 701.049 330.368 700.869 329.175 700.513C327.982 700.154 327.047 699.636 326.371 698.96C325.695 698.284 325.238 697.428 325 696.393C324.761 695.358 324.642 694.146 324.642 692.751V623.696ZM409.807 618.325C409.807 617.57 410.048 616.894 410.526 616.297C411 615.661 411.916 615.341 413.267 615.341H474.287C475.796 615.341 476.949 615.582 477.747 616.056C478.58 616.535 478.997 617.451 478.997 618.803C478.997 619.598 478.839 620.514 478.519 621.55C478.203 622.542 477.865 623.498 477.506 624.415L451.62 691.856C455.834 691.18 459.653 690.583 463.074 690.066C464.543 689.828 465.995 689.609 467.428 689.411C468.858 689.17 470.17 688.973 471.362 688.815C472.595 688.613 473.629 688.477 474.467 688.394C475.34 688.275 475.918 688.218 476.195 688.218C476.87 688.218 477.466 688.354 477.984 688.635C478.501 688.872 478.76 689.39 478.76 690.188V698.126C478.76 698.841 478.519 699.517 478.045 700.154C477.567 700.75 476.651 701.049 475.3 701.049H411.657C409.71 701.049 408.399 700.689 407.72 699.974C407.084 699.219 406.768 698.363 406.768 697.407C406.768 696.253 406.965 695.099 407.364 693.945C407.759 692.751 408.298 691.281 408.974 689.53L434.026 624.534C430.448 625.249 427.168 625.868 424.182 626.382C422.91 626.623 421.638 626.842 420.366 627.04C419.095 627.237 417.92 627.439 416.845 627.636C415.775 627.795 414.841 627.935 414.043 628.053C413.249 628.132 412.692 628.172 412.372 628.172C411.697 628.172 411.101 628.053 410.583 627.816C410.066 627.575 409.807 627.061 409.807 626.263V618.325ZM561.182 645.303V693.707C565.041 693.15 568.579 692.654 571.799 692.216C573.153 692.018 574.504 691.838 575.855 691.68C577.249 691.479 578.521 691.299 579.674 691.141C580.827 690.982 581.819 690.864 582.656 690.785C583.49 690.702 584.068 690.662 584.384 690.662C585.06 690.662 585.638 690.803 586.116 691.083C586.594 691.32 586.831 691.838 586.831 692.633V698.126C586.831 698.841 586.651 699.517 586.295 700.154C585.936 700.75 585.081 701.049 583.73 701.049H525.753C523.885 701.049 522.355 700.869 521.162 700.513C520.009 700.154 519.092 699.636 518.417 698.96C517.742 698.284 517.285 697.428 517.045 696.393C516.807 695.358 516.685 694.146 516.685 692.751V625.727C516.685 623.459 516.944 621.647 517.461 620.295C517.979 618.904 518.715 617.847 519.671 617.131C520.623 616.376 521.758 615.898 523.07 615.701C524.421 615.46 525.912 615.341 527.543 615.341H581.463C582.814 615.341 583.669 615.661 584.028 616.297C584.424 616.894 584.625 617.57 584.625 618.325V622.564C584.625 623.358 584.406 623.897 583.967 624.174C583.569 624.415 583.033 624.534 582.358 624.534C581.959 624.534 581.345 624.494 580.508 624.415C579.714 624.332 578.779 624.235 577.705 624.117C576.631 623.955 575.478 623.797 574.245 623.639C573.013 623.48 571.781 623.301 570.548 623.099C567.685 622.664 564.563 622.165 561.182 621.607V636.768H583.371C584.204 636.768 584.625 637.185 584.625 638.023V643.991C584.625 644.864 584.204 645.303 583.371 645.303H561.182ZM677.545 684.813C676.032 685.651 674.484 686.345 672.892 686.902C671.34 687.459 669.731 687.919 668.06 688.275V692.751C668.06 694.027 667.924 695.182 667.643 696.213C667.367 697.209 666.867 698.065 666.152 698.78C665.477 699.496 664.561 700.053 663.407 700.452C662.294 700.851 660.885 701.049 659.175 701.049H632.75C630.842 701.049 629.29 700.869 628.098 700.513C626.905 700.154 625.971 699.636 625.295 698.96C624.62 698.284 624.163 697.428 623.923 696.393C623.686 695.358 623.567 694.146 623.567 692.751V623.696C623.567 622.305 623.686 621.09 623.923 620.058C624.163 619.022 624.62 618.167 625.295 617.491C625.971 616.775 626.905 616.236 628.098 615.88C629.29 615.521 630.842 615.341 632.75 615.341H659.351C662.215 615.341 665.021 615.582 667.762 616.056C670.546 616.535 673.173 617.311 675.637 618.386C678.141 619.422 680.426 620.813 682.496 622.564C684.601 624.314 686.412 626.482 687.925 629.071C689.473 631.616 690.666 634.6 691.503 638.023C692.376 641.445 692.814 645.382 692.814 649.84C692.814 653.658 692.577 657.12 692.099 660.226C691.622 663.329 690.964 666.133 690.13 668.639C689.293 671.148 688.28 673.374 687.087 675.326C685.934 677.235 684.644 678.924 683.211 680.398L695.139 696.156C695.538 696.713 695.735 697.249 695.735 697.766C695.735 698.363 695.52 698.881 695.081 699.319C694.683 699.754 694.244 700.114 693.77 700.391L690.188 702.48C689.911 702.641 689.613 702.76 689.293 702.839C689.017 702.958 688.719 703.019 688.399 703.019C687.964 703.019 687.526 702.879 687.087 702.602C686.649 702.321 686.254 701.843 685.895 701.167L677.545 684.813ZM684.404 650.915C684.404 647.334 684.087 644.03 683.452 641.007C682.812 637.983 681.838 635.316 680.527 633.007C679.216 630.699 677.523 628.79 675.458 627.277C673.388 625.767 670.924 624.732 668.06 624.174V680.456C670.924 679.82 673.388 678.666 675.458 676.997C677.523 675.286 679.216 673.158 680.527 670.609C681.838 668.064 682.812 665.137 683.452 661.837C684.087 658.493 684.404 654.851 684.404 650.915Z" fill="#00618A"/>
        <path d="M79.0413 215.707C79.0413 96.5754 175.554 0 294.608 0H635.923V345.132C635.923 464.263 539.41 560.839 420.356 560.839H79.0413V215.707Z" fill="#00618A"/>
        <path d="M484.293 148.842C478.465 119.117 435.115 89.8779 359.278 89.8779C283.443 89.8779 240.085 119.117 234.265 148.842C233.843 149.86 233.531 150.976 233.531 152.237V155.701V235.382V238.847V242.311V318.528V321.992V325.457V408.603C233.531 409.725 233.747 410.786 234.12 411.728C240.06 445.644 293.206 470.961 359.278 470.961C425.199 470.961 478.261 445.748 484.397 411.954C484.799 410.965 485.026 409.822 485.026 408.603V325.457V321.992V318.528V242.311V238.847V235.382V155.701V152.237C485.026 150.976 484.713 149.86 484.293 148.842ZM474.567 325.353C474.427 326.191 474.233 327.022 473.985 327.868C473.784 328.554 473.536 329.24 473.267 329.926C472.929 330.778 472.552 331.63 472.103 332.482C471.772 333.127 471.395 333.764 471.003 334.402C470.443 335.309 469.85 336.217 469.178 337.118C468.769 337.665 468.323 338.206 467.87 338.753C467.044 339.744 466.185 340.728 465.222 341.704C464.809 342.127 464.367 342.536 463.929 342.952C462.794 344.033 461.608 345.106 460.304 346.16C459.963 346.444 459.596 346.714 459.237 346.991C457.739 348.155 456.176 349.312 454.484 350.435C454.268 350.58 454.042 350.719 453.819 350.858C451.933 352.084 449.964 353.289 447.855 354.453C447.794 354.488 447.733 354.516 447.675 354.55C436.25 360.835 421.638 366.12 404.612 369.586C404.526 369.6 404.443 369.614 404.357 369.636C401.048 370.308 397.653 370.901 394.164 371.43C393.597 371.513 393 371.566 392.425 371.649C389.382 372.088 386.303 372.49 383.135 372.807C381.687 372.954 380.167 373.023 378.694 373.148C376.308 373.342 373.951 373.555 371.505 373.673C367.513 373.846 363.439 373.957 359.278 373.957C355.119 373.957 351.044 373.846 347.046 373.652C344.601 373.537 342.242 373.314 339.858 373.127C338.384 373.008 336.865 372.933 335.417 372.785C332.248 372.469 329.169 372.066 326.126 371.631C325.553 371.545 324.954 371.491 324.386 371.408C320.9 370.88 317.505 370.279 314.195 369.614C314.11 369.6 314.024 369.586 313.939 369.564C296.913 366.102 282.301 360.814 270.878 354.53C270.818 354.502 270.757 354.467 270.697 354.433C268.589 353.268 266.613 352.063 264.731 350.837C264.515 350.691 264.284 350.553 264.067 350.414C262.377 349.292 260.813 348.141 259.314 346.97C258.962 346.693 258.59 346.423 258.248 346.139C256.945 345.086 255.758 344.012 254.621 342.931C254.189 342.515 253.741 342.106 253.329 341.684C252.368 340.707 251.508 339.723 250.683 338.732C250.235 338.192 249.783 337.651 249.375 337.097C248.701 336.196 248.108 335.295 247.549 334.381C247.157 333.743 246.78 333.106 246.448 332.461C246.005 331.609 245.628 330.757 245.286 329.905C245.014 329.219 244.773 328.533 244.567 327.847C244.32 327.009 244.124 326.17 243.983 325.332C243.797 324.23 243.591 323.107 243.591 321.992C243.591 321.209 243.656 320.426 243.747 319.65C243.872 318.604 243.802 317.558 243.591 316.567V265.128C243.732 265.308 243.908 265.481 244.054 265.661C245.15 266.991 246.267 268.315 247.524 269.59C266.472 289.33 304.362 304.67 359.278 304.67C413.964 304.67 451.757 289.455 470.788 269.832C472.304 268.308 473.673 266.735 474.962 265.134L474.966 265.128V316.567C474.754 317.558 474.686 318.604 474.812 319.65C474.905 320.426 474.966 321.209 474.966 321.992C474.966 323.107 474.761 324.23 474.567 325.353ZM474.966 181.982V233.421C474.754 234.412 474.686 235.458 474.812 236.505C474.905 237.281 474.966 238.064 474.966 238.847C474.966 239.962 474.761 241.085 474.567 242.207C474.427 243.046 474.233 243.877 473.985 244.722C473.784 245.408 473.536 246.094 473.267 246.78C472.929 247.632 472.552 248.485 472.103 249.337C471.772 249.981 471.395 250.619 471.003 251.256C470.443 252.164 469.85 253.072 469.178 253.972C468.769 254.52 468.323 255.06 467.87 255.607C467.044 256.598 466.185 257.582 465.222 258.559C464.809 258.982 464.367 259.39 463.929 259.806C462.794 260.887 461.608 261.961 460.304 263.014C459.963 263.298 459.596 263.569 459.237 263.846C457.739 265.01 456.176 266.167 454.484 267.289C454.268 267.435 454.042 267.573 453.819 267.712C451.933 268.938 449.964 270.144 447.855 271.308C447.794 271.343 447.733 271.37 447.675 271.405C436.25 277.69 421.638 282.976 404.612 286.44C404.526 286.455 404.443 286.468 404.357 286.489C401.048 287.161 397.653 287.757 394.164 288.284C393.597 288.367 393 288.422 392.425 288.505C389.382 288.942 386.303 289.344 383.135 289.662C381.687 289.808 380.167 289.877 378.694 290.002C376.308 290.196 373.951 290.411 371.505 290.529C367.513 290.702 363.439 290.813 359.278 290.813C355.119 290.813 351.044 290.702 347.046 290.508C344.601 290.39 342.242 290.168 339.858 289.981C338.384 289.863 336.865 289.787 335.417 289.642C332.248 289.323 329.169 288.921 326.126 288.484C325.553 288.401 324.954 288.346 324.386 288.263C320.9 287.736 317.505 287.133 314.195 286.468C314.11 286.455 314.024 286.44 313.939 286.42C296.913 282.955 282.301 277.669 270.878 271.384C270.818 271.356 270.757 271.322 270.697 271.287C268.589 270.123 266.613 268.918 264.731 267.691C264.515 267.546 264.284 267.407 264.067 267.268C262.377 266.146 260.813 264.996 259.314 263.825C258.962 263.548 258.59 263.277 258.248 262.993C256.945 261.94 255.758 260.866 254.621 259.786C254.189 259.37 253.741 258.961 253.329 258.538C252.368 257.561 251.508 256.578 250.683 255.587C250.235 255.046 249.783 254.506 249.375 253.951C248.701 253.051 248.108 252.15 247.549 251.235C247.157 250.598 246.78 249.96 246.448 249.316C246.005 248.464 245.628 247.612 245.286 246.759C245.014 246.073 244.773 245.387 244.567 244.702C244.32 243.863 244.124 243.025 243.983 242.186C243.797 241.085 243.591 239.962 243.591 238.847C243.591 238.064 243.656 237.281 243.747 236.505C243.872 235.458 243.802 234.412 243.591 233.421V181.982C244.194 182.737 244.883 183.479 245.537 184.227C245.9 184.643 246.237 185.058 246.619 185.474C248.128 187.109 249.757 188.724 251.523 190.297C251.89 190.622 252.303 190.941 252.685 191.267C254.164 192.535 255.728 193.775 257.373 194.995C257.981 195.445 258.59 195.888 259.219 196.332C261.055 197.62 262.981 198.874 265.008 200.087C265.34 200.288 265.642 200.496 265.979 200.69C268.338 202.069 270.843 203.385 273.448 204.66C274.168 205.014 274.922 205.346 275.661 205.693C277.734 206.656 279.876 207.577 282.095 208.471C282.894 208.79 283.679 209.122 284.499 209.427C287.441 210.55 290.48 211.617 293.668 212.601C294.106 212.739 294.579 212.85 295.021 212.982C297.833 213.827 300.751 214.61 303.748 215.344C304.764 215.594 305.796 215.829 306.832 216.065C309.684 216.709 312.621 217.298 315.634 217.839C316.409 217.977 317.148 218.136 317.933 218.268C321.675 218.892 325.548 219.425 329.527 219.883C330.507 219.994 331.528 220.077 332.524 220.174C335.708 220.492 338.963 220.756 342.292 220.964C343.505 221.04 344.712 221.116 345.949 221.178C350.285 221.379 354.701 221.525 359.278 221.525C363.856 221.525 368.271 221.379 372.608 221.178C373.84 221.116 375.047 221.04 376.265 220.964C379.596 220.756 382.847 220.492 386.034 220.174C387.029 220.07 388.046 219.994 389.03 219.883C393.007 219.432 396.881 218.892 400.624 218.268C401.407 218.136 402.148 217.977 402.924 217.839C405.934 217.298 408.87 216.709 411.726 216.065C412.761 215.829 413.792 215.594 414.808 215.344C417.805 214.61 420.722 213.827 423.535 212.982C423.977 212.85 424.452 212.732 424.89 212.601C428.077 211.617 431.116 210.543 434.059 209.427C434.878 209.115 435.661 208.79 436.462 208.471C438.679 207.577 440.824 206.656 442.897 205.693C443.633 205.346 444.388 205.014 445.11 204.66C447.715 203.385 450.223 202.069 452.579 200.69C452.914 200.496 453.215 200.288 453.549 200.087C455.576 198.868 457.502 197.62 459.337 196.332C459.966 195.888 460.581 195.445 461.184 194.995C462.83 193.782 464.393 192.542 465.873 191.267C466.254 190.941 466.667 190.622 467.033 190.297C468.801 188.724 470.428 187.116 471.937 185.474C472.315 185.058 472.652 184.643 473.019 184.227C473.673 183.479 474.362 182.737 474.966 181.982ZM359.278 103.735C427.459 103.735 474.966 131.118 474.966 155.701C474.966 180.285 427.459 207.667 359.278 207.667C291.098 207.667 243.591 180.285 243.591 155.701C243.591 131.118 291.098 103.735 359.278 103.735ZM474.966 406.543C474.894 406.849 474.844 407.162 474.804 407.478C471.952 431.447 424.847 457.102 359.278 457.102C293.709 457.102 246.604 431.447 243.752 407.478C243.712 407.169 243.656 406.863 243.591 406.572V348.273C243.732 348.453 243.908 348.626 244.054 348.807C245.15 350.137 246.267 351.46 247.524 352.735C266.472 372.476 304.362 387.816 359.278 387.816C413.964 387.816 451.757 372.598 470.788 352.978C472.304 351.453 473.673 349.88 474.962 348.28L474.966 348.273V406.543Z" fill="white"/>
</svg>