<svg width="98" height="100" viewBox="0 0 98 100" fill="none" xmlns="http://www.w3.org/2000/svg">
<g clip-path="url(#clip0_481_140)">
<path d="M3.61877 89.9185C3.67979 89.3111 3.84344 88.8038 4.10971 88.3968C4.37598 87.9898 4.70605 87.6665 5.09991 87.4267C5.49377 87.1814 5.93202 87.0086 6.41464 86.9084C6.89726 86.8077 7.3854 86.7578 7.8791 86.7578C8.28408 86.7578 8.68069 86.7744 9.06904 86.8077C9.45733 86.8414 9.81515 86.8802 10.1424 86.925C10.4697 86.9693 10.7526 87.0142 10.9912 87.0585C11.2297 87.1033 11.4045 87.1366 11.5154 87.1592C11.5819 87.1759 11.6152 87.2066 11.6152 87.2509C11.6152 87.262 11.6097 87.2957 11.5986 87.3511L11.4738 87.9536C11.4627 87.9924 11.4461 88.0175 11.4239 88.0286C11.4072 88.0342 11.3906 88.0372 11.3739 88.0372C11.1298 88.0372 10.919 88.079 10.7415 88.1626C10.564 88.2462 10.417 88.3631 10.3005 88.5137C10.184 88.6643 10.0953 88.8426 10.0342 89.0491C9.97323 89.2552 9.93163 89.4783 9.90943 89.7181L9.41017 95.7973C9.36581 96.2879 9.241 96.7508 9.03576 97.1855C8.83051 97.6202 8.54481 97.9994 8.17867 98.3228C7.81254 98.6462 7.36319 98.9026 6.83065 99.092C6.29811 99.2814 5.68793 99.3761 5.00006 99.3761C4.53963 99.3761 4.09584 99.3539 3.6687 99.3096C3.24155 99.2648 2.85324 99.2119 2.50376 99.1504C2.15428 99.089 1.85195 99.0305 1.59677 98.9751C1.34714 98.9137 1.16685 98.8688 1.05591 98.8411C0.989339 98.8245 0.956055 98.7938 0.956055 98.749C0.956055 98.7434 0.961602 98.7127 0.972697 98.6573L1.11415 98.0216C1.12525 97.9828 1.13912 97.9602 1.15576 97.9546C1.17795 97.9435 1.19736 97.938 1.21401 97.938C1.45809 97.938 1.68275 97.9017 1.88801 97.8292C2.0988 97.7567 2.28186 97.6368 2.43719 97.4696C2.59251 97.3023 2.7201 97.0852 2.81996 96.8173C2.92536 96.5498 2.99747 96.2209 3.0363 95.8305L3.61877 89.9185ZM21.4829 99.3761C21.0392 99.3761 20.5926 99.3373 20.1433 99.2592C19.6995 99.1811 19.2724 99.0472 18.8619 98.8578C18.4513 98.6684 18.0686 98.4175 17.7135 98.1052C17.3585 97.7874 17.0479 97.3945 16.7816 96.9261C16.5209 96.4521 16.3156 95.895 16.1658 95.2538C16.0161 94.607 15.9412 93.857 15.9412 93.0042C15.9412 92.157 16.0161 91.41 16.1658 90.7632C16.3156 90.1165 16.5209 89.5589 16.7816 89.0909C17.0479 88.617 17.3585 88.2241 17.7135 87.9118C18.0686 87.5995 18.4513 87.3511 18.8619 87.1673C19.2724 86.9779 19.6995 86.8439 20.1433 86.7658C20.5926 86.6878 21.0392 86.649 21.4829 86.649C21.9268 86.649 22.3733 86.6878 22.8226 86.7658C23.272 86.8439 23.7019 86.9779 24.1124 87.1673C24.5229 87.3511 24.9056 87.5995 25.2607 87.9118C25.6157 88.2241 25.9236 88.617 26.1843 89.0909C26.445 89.5589 26.6503 90.1165 26.8 90.7632C26.9499 91.41 27.0247 92.157 27.0247 93.0042C27.0247 93.9406 26.936 94.7521 26.7584 95.4376C26.581 96.1176 26.3369 96.7004 26.0262 97.1855L27.1995 98.8663C27.2605 98.961 27.291 99.0416 27.291 99.1086C27.291 99.1867 27.2633 99.2537 27.2078 99.3096C27.1579 99.3705 27.0996 99.4209 27.0331 99.4597L26.5088 99.7528C26.47 99.775 26.4312 99.7916 26.3924 99.8027C26.3535 99.8193 26.3119 99.8279 26.2675 99.8279C26.2009 99.8279 26.1371 99.8082 26.0761 99.7695C26.0151 99.7302 25.9597 99.6632 25.9097 99.5685L25.1608 98.1888C24.9001 98.412 24.6228 98.5989 24.3287 98.749C24.0347 98.8996 23.7296 99.0194 23.4134 99.1086C23.1028 99.2033 22.7838 99.2703 22.4565 99.3096C22.1292 99.3539 21.8047 99.3761 21.4829 99.3761ZM24.4036 95.2956C24.5368 95.212 24.6588 95.2452 24.7698 95.3958L25.1941 96.0063C25.3827 95.7333 25.538 95.354 25.6601 94.8689C25.7821 94.3783 25.8432 93.7567 25.8432 93.0042C25.8432 92.3076 25.7904 91.7248 25.685 91.2564C25.5852 90.7884 25.4493 90.4122 25.2774 90.1276C25.1109 89.8435 24.9195 89.6425 24.7032 89.5256C24.4868 89.4027 24.2649 89.3418 24.0375 89.3418C23.81 89.3418 23.5881 89.4027 23.3718 89.5256C23.161 89.6425 22.9696 89.8435 22.7977 90.1276C22.6257 90.4122 22.487 90.7884 22.3816 91.2564C22.2818 91.7248 22.2319 92.3076 22.2319 93.0042C22.2319 93.7013 22.2818 94.2836 22.3816 94.7521C22.487 95.22 22.6257 95.5968 22.7977 95.8809C22.9696 96.165 23.161 96.3685 23.3718 96.4914C23.5881 96.6082 23.81 96.6672 24.0375 96.6672C24.1429 96.6672 24.24 96.6556 24.3287 96.6334L23.921 95.8723C23.8822 95.8003 23.8683 95.7333 23.8794 95.6718C23.8905 95.6048 23.9349 95.5489 24.0125 95.5046L24.4036 95.2956ZM32.3076 88.2125C32.3076 88.0175 32.3242 87.8473 32.3575 87.7027C32.3908 87.5577 32.4546 87.4378 32.5489 87.3431C32.6432 87.2428 32.7736 87.1673 32.94 87.1174C33.1064 87.0671 33.3227 87.0419 33.589 87.0419H37.3002C37.6219 87.0419 37.866 87.0892 38.0324 87.1839C38.2044 87.2791 38.3237 87.3985 38.3902 87.5436C38.4623 87.6831 38.5012 87.8337 38.5067 87.9954C38.5123 88.1515 38.5151 88.2961 38.5151 88.4301V97.9048C38.8978 97.8488 39.2528 97.7985 39.5801 97.7541C39.7188 97.7375 39.8575 97.7204 39.9962 97.7038C40.1404 97.6816 40.2708 97.662 40.3872 97.6453C40.5093 97.6287 40.6175 97.6176 40.7118 97.6121C40.8061 97.6005 40.8754 97.595 40.9198 97.595C41.0141 97.595 41.089 97.6146 41.1445 97.6539C41.2055 97.6872 41.236 97.7597 41.236 97.871V98.6407C41.236 98.7409 41.1916 98.8356 41.1029 98.9248C41.0197 99.0084 40.8838 99.0502 40.6951 99.0502H33.5724C33.3117 99.0502 33.0981 99.025 32.9316 98.9751C32.7708 98.9248 32.6432 98.8522 32.5489 98.7575C32.4546 98.6628 32.3908 98.5429 32.3575 98.3979C32.3242 98.2528 32.3076 98.0831 32.3076 97.8876V88.2125ZM46.186 88.2125C46.186 88.0175 46.2027 87.8473 46.236 87.7027C46.2692 87.5577 46.333 87.4378 46.4273 87.3431C46.5216 87.2428 46.652 87.1673 46.8184 87.1174C46.9848 87.0671 47.2012 87.0419 47.4674 87.0419H51.1785C51.5002 87.0419 51.7443 87.0892 51.9107 87.1839C52.0826 87.2791 52.2019 87.3985 52.2686 87.5436C52.3408 87.6831 52.3794 87.8337 52.3854 87.9954C52.3909 88.1515 52.3934 88.2961 52.3934 88.4301V97.6957C52.3934 97.8237 52.3824 97.9657 52.3603 98.1218C52.3378 98.278 52.2826 98.4256 52.1939 98.5651C52.1052 98.6991 51.9689 98.8134 51.7859 98.9081C51.603 99.0028 51.3504 99.0502 51.0286 99.0502H47.4674C47.2012 99.0502 46.9848 99.025 46.8184 98.9751C46.652 98.9248 46.5216 98.8522 46.4273 98.7575C46.333 98.6628 46.2692 98.5429 46.236 98.3979C46.2027 98.2528 46.186 98.0831 46.186 97.8876V88.2125ZM58.0672 87.46C58.0672 87.3542 58.1008 87.2595 58.1674 87.1759C58.2336 87.0867 58.3614 87.0419 58.5499 87.0419H67.0625C67.273 87.0419 67.4339 87.0756 67.5452 87.1421C67.6615 87.2091 67.7196 87.3375 67.7196 87.5269C67.7196 87.6383 67.6976 87.7667 67.653 87.9118C67.6089 88.0508 67.5617 88.1848 67.5116 88.3132L63.9004 97.7622C64.4883 97.6675 65.0211 97.5839 65.4982 97.5114C65.7032 97.4781 65.9057 97.4474 66.1057 97.4197C66.3052 97.3859 66.4881 97.3582 66.6545 97.3361C66.8265 97.3079 66.9708 97.2887 67.0876 97.2771C67.2094 97.2605 67.2901 97.2525 67.3287 97.2525C67.4229 97.2525 67.5061 97.2716 67.5783 97.3109C67.6505 97.3441 67.6865 97.4167 67.6865 97.5285V98.6407C67.6865 98.7409 67.653 98.8356 67.5868 98.9248C67.5201 99.0084 67.3923 99.0502 67.2039 99.0502H58.3253C58.0537 99.0502 57.8707 98.9998 57.776 98.8996C57.6873 98.7938 57.6432 98.6739 57.6432 98.5399C57.6432 98.3782 57.6707 98.2165 57.7264 98.0549C57.7815 97.8876 57.8567 97.6816 57.9509 97.4363L61.4459 88.3298C60.9467 88.4301 60.4891 88.5167 60.0726 88.5887C59.8951 88.6225 59.7177 88.6532 59.5403 88.6809C59.3628 88.7086 59.1989 88.7368 59.0491 88.7645C58.8997 88.7867 58.7694 88.8063 58.6581 88.823C58.5473 88.8341 58.4697 88.8396 58.4251 88.8396C58.3308 88.8396 58.2476 88.823 58.1754 88.7897C58.1033 88.756 58.0672 88.6839 58.0672 88.5721V87.46ZM79.185 91.2397V98.0216C79.7233 97.9435 80.217 97.874 80.6661 97.8126C80.855 97.7849 81.0435 97.7597 81.2319 97.7375C81.4264 97.7093 81.6038 97.6841 81.7647 97.662C81.9256 97.6398 82.064 97.6232 82.1807 97.6121C82.297 97.6005 82.3777 97.595 82.4218 97.595C82.5161 97.595 82.5968 97.6146 82.6634 97.6539C82.7301 97.6872 82.7632 97.7597 82.7632 97.871V98.6407C82.7632 98.7409 82.7381 98.8356 82.6885 98.9248C82.6384 99.0084 82.5191 99.0502 82.3306 99.0502H74.2425C73.9818 99.0502 73.7683 99.025 73.6019 98.9751C73.441 98.9248 73.3132 98.8522 73.219 98.7575C73.1248 98.6628 73.0611 98.5429 73.0275 98.3979C72.9944 98.2528 72.9774 98.0831 72.9774 97.8876V88.4971C72.9774 88.1792 73.0135 87.9254 73.0857 87.736C73.1578 87.541 73.2606 87.393 73.3939 87.2927C73.5267 87.1869 73.6851 87.1199 73.8681 87.0922C74.0565 87.0585 74.2645 87.0419 74.4921 87.0419H82.0143C82.2028 87.0419 82.3221 87.0867 82.3722 87.1759C82.4273 87.2595 82.4554 87.3542 82.4554 87.46V88.0538C82.4554 88.1651 82.4248 88.2407 82.3637 88.2795C82.3081 88.3132 82.2334 88.3298 82.1391 88.3298C82.0835 88.3298 81.9978 88.3243 81.881 88.3132C81.7703 88.3016 81.6399 88.288 81.4901 88.2714C81.3402 88.2487 81.1793 88.2266 81.0074 88.2044C80.8355 88.1823 80.6636 88.1571 80.4916 88.1289C80.0922 88.0679 79.6566 87.9979 79.185 87.9198V90.0439H82.2805C82.3968 90.0439 82.4554 90.1024 82.4554 90.2197V91.0559C82.4554 91.1783 82.3968 91.2397 82.2805 91.2397H79.185ZM95.4184 96.7754C95.2074 96.8928 94.9914 96.99 94.7693 97.0681C94.5528 97.1462 94.3282 97.2107 94.0952 97.2605V97.8876C94.0952 98.0664 94.0761 98.2281 94.037 98.3727C93.9984 98.5122 93.9288 98.6321 93.829 98.7323C93.7348 98.8326 93.607 98.9106 93.4461 98.9666C93.2907 99.0225 93.0942 99.0502 92.8557 99.0502H89.1692C88.9031 99.0502 88.6865 99.025 88.5201 98.9751C88.3537 98.9248 88.2234 98.8522 88.1292 98.7575C88.035 98.6628 87.9713 98.5429 87.9377 98.3979C87.9046 98.2528 87.8881 98.0831 87.8881 97.8876V88.2125C87.8881 88.0175 87.9046 87.8473 87.9377 87.7027C87.9713 87.5577 88.035 87.4378 88.1292 87.3431C88.2234 87.2428 88.3537 87.1673 88.5201 87.1174C88.6865 87.0671 88.9031 87.0419 89.1692 87.0419H92.8802C93.2797 87.0419 93.6712 87.0756 94.0536 87.1421C94.442 87.2091 94.8084 87.3179 95.1522 87.4685C95.5016 87.6136 95.8204 87.8085 96.1091 88.0538C96.4028 88.2991 96.6554 88.6029 96.8664 88.9655C97.0824 89.3221 97.2488 89.7402 97.3656 90.2197C97.4874 90.6993 97.5486 91.2508 97.5486 91.8754C97.5486 92.4103 97.5155 92.8954 97.4488 93.3306C97.3822 93.7653 97.2904 94.1582 97.1742 94.5093C97.0574 94.8609 96.916 95.1727 96.7496 95.4462C96.5887 95.7136 96.4088 95.9504 96.2088 96.1569L97.8729 98.3646C97.9285 98.4427 97.9561 98.5178 97.9561 98.5903C97.9561 98.6739 97.926 98.7464 97.8648 98.8079C97.8092 98.8688 97.7481 98.9192 97.6819 98.958L97.1822 99.2506C97.1436 99.2733 97.102 99.2899 97.0574 99.301C97.0188 99.3176 96.9772 99.3262 96.9326 99.3262C96.8719 99.3262 96.8108 99.3066 96.7496 99.2678C96.6885 99.2285 96.6333 99.1615 96.5832 99.0668L95.4184 96.7754ZM96.3752 92.026C96.3752 91.5243 96.3311 91.0614 96.2424 90.6378C96.1532 90.2142 96.0173 89.8405 95.8344 89.5171C95.6515 89.1937 95.4154 88.9262 95.1272 88.7142C94.8385 88.5026 94.4947 88.3576 94.0952 88.2795V96.165C94.4947 96.0758 94.8385 95.9141 95.1272 95.6804C95.4154 95.4406 95.6515 95.1424 95.8344 94.7853C96.0173 94.4287 96.1532 94.0187 96.2424 93.5563C96.3311 93.0878 96.3752 92.5776 96.3752 92.026Z" fill="white"/>
<path d="M11.9233 31.0501C11.9233 14.3588 25.3875 0.827881 41.9964 0.827881H89.612V49.1835C89.612 65.8747 76.1478 79.4057 59.539 79.4057H11.9233V31.0501Z" fill="#00618A"/>
<path d="M68.4586 21.6818C67.6456 17.5171 61.5979 13.4205 51.0182 13.4205C40.4386 13.4205 34.3899 17.5171 33.578 21.6818C33.5191 21.8245 33.4756 21.9808 33.4756 22.1575V22.6428V33.8067V34.2922V34.7775V45.456V45.9414V46.4268V58.0763C33.4756 58.2335 33.5058 58.3821 33.5577 58.5141C34.3864 63.266 41.8006 66.8131 51.0182 66.8131C60.2145 66.8131 67.617 63.2806 68.4731 58.5458C68.5292 58.4073 68.5608 58.2471 68.5608 58.0763V46.4268V45.9414V45.456V34.7775V34.2922V33.8067V22.6428V22.1575C68.5608 21.9808 68.5172 21.8245 68.4586 21.6818ZM67.1018 46.4123C67.0822 46.5297 67.0551 46.6462 67.0206 46.7647C66.9925 46.8608 66.9579 46.9569 66.9203 47.053C66.8732 47.1724 66.8206 47.2918 66.7579 47.4112C66.7118 47.5015 66.6592 47.5908 66.6045 47.6801C66.5264 47.8073 66.4437 47.9344 66.3499 48.0606C66.2928 48.1373 66.2306 48.2131 66.1675 48.2897C66.0522 48.4286 65.9324 48.5664 65.7981 48.7033C65.7405 48.7625 65.6788 48.8198 65.6177 48.878C65.4593 49.0295 65.2939 49.1799 65.1119 49.3275C65.0643 49.3673 65.0132 49.4051 64.9631 49.444C64.7541 49.6071 64.536 49.7692 64.2999 49.9265C64.2699 49.9469 64.2383 49.9663 64.2072 49.9857C63.9441 50.1575 63.6694 50.3264 63.3752 50.4895C63.3667 50.4943 63.3582 50.4983 63.3501 50.5031C61.7563 51.3836 59.7178 52.1241 57.3426 52.6096C57.3305 52.6117 57.319 52.6137 57.307 52.6167C56.8453 52.7109 56.3717 52.794 55.885 52.868C55.8058 52.8796 55.7226 52.8872 55.6424 52.8988C55.2179 52.9602 54.7883 53.0166 54.3463 53.061C54.1443 53.0816 53.9323 53.0912 53.7268 53.1088C53.394 53.136 53.0652 53.1657 52.7238 53.1824C52.167 53.2065 51.5986 53.2221 51.0182 53.2221C50.4379 53.2221 49.8695 53.2065 49.3116 53.1793C48.9706 53.1632 48.6415 53.132 48.3089 53.1058C48.1033 53.0892 47.8914 53.0786 47.6893 53.0579C47.2472 53.0136 46.8178 52.9572 46.3933 52.8963C46.3133 52.8842 46.2298 52.8766 46.1505 52.865C45.6642 52.791 45.1905 52.7069 44.7288 52.6137C44.7169 52.6117 44.705 52.6096 44.693 52.6066C42.3178 52.1216 40.2793 51.3806 38.6857 50.5002C38.6773 50.4963 38.6689 50.4915 38.6605 50.4866C38.3665 50.3235 38.0907 50.1546 37.8283 49.9828C37.7981 49.9624 37.7658 49.943 37.7356 49.9235C37.4999 49.7663 37.2816 49.6052 37.0725 49.4411C37.0234 49.4023 36.9715 49.3644 36.9238 49.3246C36.742 49.177 36.5764 49.0266 36.4178 48.8751C36.3575 48.8169 36.295 48.7596 36.2375 48.7004C36.1035 48.5635 35.9835 48.4256 35.8684 48.2868C35.8059 48.2111 35.7428 48.1354 35.686 48.0577C35.5919 47.9315 35.5091 47.8053 35.4312 47.6772C35.3765 47.5879 35.3239 47.4986 35.2776 47.4082C35.2158 47.2889 35.1632 47.1694 35.1155 47.0501C35.0776 46.954 35.0439 46.8578 35.0151 46.7617C34.9807 46.6443 34.9534 46.5268 34.9337 46.4094C34.9078 46.255 34.879 46.0977 34.879 45.9414C34.879 45.8318 34.8881 45.722 34.9007 45.6133C34.9183 45.4667 34.9085 45.3201 34.879 45.1813V37.9743C34.8986 37.9995 34.9232 38.0238 34.9436 38.049C35.0965 38.2354 35.2523 38.4209 35.4277 38.5995C38.071 41.3652 43.357 43.5145 51.0182 43.5145C58.6472 43.5145 63.9195 41.3827 66.5745 38.6334C66.786 38.4199 66.977 38.1995 67.1569 37.9752L67.1574 37.9743V45.1813C67.1278 45.3201 67.1183 45.4667 67.1358 45.6133C67.1489 45.722 67.1574 45.8318 67.1574 45.9414C67.1574 46.0977 67.1288 46.255 67.1018 46.4123ZM67.1574 26.325V33.532C67.1278 33.6708 67.1183 33.8174 67.1358 33.964C67.1489 34.0727 67.1574 34.1824 67.1574 34.2922C67.1574 34.4485 67.1288 34.6057 67.1018 34.763C67.0822 34.8804 67.0551 34.9969 67.0206 35.1154C66.9925 35.2115 66.9579 35.3076 66.9203 35.4037C66.8732 35.5231 66.8206 35.6425 66.7579 35.7619C66.7118 35.8522 66.6592 35.9415 66.6045 36.0308C66.5264 36.158 66.4437 36.2852 66.3499 36.4113C66.2928 36.488 66.2306 36.5638 66.1675 36.6404C66.0522 36.7792 65.9324 36.9171 65.7981 37.054C65.7405 37.1132 65.6788 37.1705 65.6177 37.2287C65.4593 37.3802 65.2939 37.5306 65.1119 37.6782C65.0643 37.718 65.0132 37.7559 64.9631 37.7947C64.7541 37.9578 64.536 38.1199 64.2999 38.2772C64.2699 38.2976 64.2383 38.3169 64.2072 38.3364C63.9441 38.5082 63.6694 38.6771 63.3752 38.8402C63.3667 38.8451 63.3582 38.849 63.3501 38.8538C61.7563 39.7343 59.7178 40.475 57.3426 40.9604C57.3305 40.9623 57.319 40.9643 57.307 40.9672C56.8453 41.0613 56.3717 41.1448 55.885 41.2186C55.8058 41.2303 55.7226 41.238 55.6424 41.2497C55.2179 41.3108 54.7883 41.3671 54.3463 41.4118C54.1443 41.4322 53.9323 41.4419 53.7268 41.4594C53.394 41.4866 53.0652 41.5166 52.7238 41.5331C52.167 41.5574 51.5986 41.5729 51.0182 41.5729C50.4379 41.5729 49.8695 41.5574 49.3116 41.5302C48.9706 41.5137 48.6415 41.4827 48.3089 41.4564C48.1033 41.44 47.8914 41.4293 47.6893 41.4089C47.2472 41.3642 46.8178 41.3079 46.3933 41.2467C46.3133 41.2351 46.2298 41.2273 46.1505 41.2157C45.6642 41.1419 45.1905 41.0574 44.7288 40.9643C44.7169 40.9623 44.705 40.9604 44.693 40.9575C42.3178 40.4721 40.2793 39.7314 38.6857 38.8509C38.6773 38.847 38.6689 38.8422 38.6605 38.8373C38.3665 38.6742 38.0907 38.5053 37.8283 38.3335C37.7981 38.3131 37.7658 38.2937 37.7356 38.2742C37.4999 38.117 37.2816 37.9558 37.0725 37.7918C37.0234 37.7529 36.9715 37.7151 36.9238 37.6753C36.742 37.5277 36.5764 37.3772 36.4178 37.2258C36.3575 37.1675 36.295 37.1103 36.2375 37.0511C36.1035 36.9142 35.9835 36.7764 35.8684 36.6375C35.8059 36.5618 35.7428 36.4861 35.686 36.4084C35.5919 36.2822 35.5091 36.156 35.4312 36.0279C35.3765 35.9386 35.3239 35.8493 35.2776 35.759C35.2158 35.6396 35.1632 35.5202 35.1155 35.4008C35.0776 35.3046 35.0439 35.2085 35.0151 35.1124C34.9807 34.995 34.9534 34.8775 34.9337 34.76C34.9078 34.6057 34.879 34.4485 34.879 34.2922C34.879 34.1824 34.8881 34.0727 34.9007 33.964C34.9183 33.8174 34.9085 33.6708 34.879 33.532V26.325C34.9632 26.4308 35.0593 26.5347 35.1506 26.6395C35.2011 26.6978 35.2481 26.756 35.3014 26.8143C35.5119 27.0433 35.7393 27.2696 35.9856 27.4899C36.0368 27.5355 36.0943 27.5802 36.1477 27.6258C36.354 27.8035 36.5722 27.9773 36.8017 28.1481C36.8866 28.2112 36.9715 28.2733 37.0592 28.3354C37.3153 28.516 37.5841 28.6917 37.8669 28.8616C37.9132 28.8898 37.9553 28.9189 38.0023 28.9461C38.3314 29.1393 38.6808 29.3237 39.0443 29.5023C39.1447 29.5518 39.2499 29.5984 39.3531 29.647C39.6422 29.7819 39.9411 29.911 40.2505 30.0363C40.3621 30.0809 40.4716 30.1275 40.586 30.1702C40.9965 30.3275 41.4203 30.477 41.8652 30.6149C41.9262 30.6343 41.9922 30.6498 42.0539 30.6683C42.4462 30.7867 42.8532 30.8964 43.2714 30.9993C43.4131 31.0342 43.557 31.0672 43.7015 31.1002C44.0994 31.1905 44.5092 31.273 44.9295 31.3488C45.0376 31.3681 45.1407 31.3905 45.2502 31.4089C45.7722 31.4963 46.3126 31.571 46.8676 31.6351C47.0044 31.6507 47.1469 31.6623 47.2858 31.6759C47.73 31.7205 48.184 31.7575 48.6485 31.7866C48.8176 31.7973 48.9861 31.8079 49.1587 31.8166C49.7635 31.8448 50.3796 31.8652 51.0182 31.8652C51.6567 31.8652 52.2727 31.8448 52.8777 31.8166C53.0496 31.8079 53.218 31.7973 53.3879 31.7866C53.8526 31.7575 54.3062 31.7205 54.7508 31.6759C54.8896 31.6614 55.0314 31.6507 55.1688 31.6351C55.7236 31.572 56.2639 31.4963 56.7862 31.4089C56.8955 31.3905 56.9987 31.3681 57.107 31.3488C57.527 31.273 57.9365 31.1905 58.335 31.1002C58.4793 31.0672 58.6232 31.0342 58.765 30.9993C59.183 30.8964 59.59 30.7867 59.9825 30.6683C60.0441 30.6498 60.1103 30.6333 60.1714 30.6149C60.616 30.477 61.04 30.3265 61.4505 30.1702C61.5648 30.1265 61.6741 30.0809 61.7858 30.0363C62.0951 29.911 62.3943 29.7819 62.6835 29.647C62.7863 29.5984 62.8915 29.5518 62.9923 29.5023C63.3557 29.3237 63.7055 29.1393 64.0343 28.9461C64.0809 28.9189 64.123 28.8898 64.1696 28.8616C64.4523 28.6908 64.721 28.516 64.9771 28.3354C65.0648 28.2733 65.1505 28.2112 65.2347 28.1481C65.4643 27.9782 65.6823 27.8044 65.8888 27.6258C65.9419 27.5802 65.9996 27.5355 66.0507 27.4899C66.2973 27.2696 66.5243 27.0443 66.7349 26.8143C66.7875 26.756 66.8346 26.6978 66.8857 26.6395C66.977 26.5347 67.0732 26.4308 67.1574 26.325ZM51.0182 15.362C60.5298 15.362 67.1574 19.1985 67.1574 22.6428C67.1574 26.0872 60.5298 29.9236 51.0182 29.9236C41.5066 29.9236 34.879 26.0872 34.879 22.6428C34.879 19.1985 41.5066 15.362 51.0182 15.362ZM67.1574 57.7877C67.1474 57.8305 67.1403 57.8744 67.1348 57.9187C66.7369 61.2769 60.1654 64.8713 51.0182 64.8713C41.8708 64.8713 35.2993 61.2769 34.9015 57.9187C34.8958 57.8754 34.8881 57.8326 34.879 57.7918V49.6236C34.8986 49.6488 34.9232 49.6731 34.9436 49.6983C35.0965 49.8847 35.2523 50.0701 35.4277 50.2487C38.071 53.0146 43.357 55.1639 51.0182 55.1639C58.6472 55.1639 63.9195 53.0318 66.5745 50.2827C66.786 50.0692 66.977 49.8488 67.1569 49.6245L67.1574 49.6236V57.7877Z" fill="white"/>
</g>
<defs>
<clipPath id="clip0_481_140">
<rect width="97" height="99" fill="white" transform="translate(0.956055 0.827881)"/>
</clipPath>
</defs>
</svg>
